G04 ================== begin FILE IDENTIFICATION RECORD ==================*
G04 Layout Name:  C:/Users/user/Desktop/AVRUSB500.brd*
G04 Film Name:    BOTTOM*
G04 File Format:  Gerber RS274X*
G04 File Origin:  Cadence Allegro 16.6-S034*
G04 Origin Date:  Fri Jul 19 12:19:50 2019*
G04 *
G04 Layer:  ETCH/BOTTOM*
G04 Layer:  PIN/BOTTOM*
G04 Layer:  VIA CLASS/BOTTOM*
G04 *
G04 Offset:    (0.0000 0.0000)*
G04 Mirror:    No*
G04 Mode:      Positive*
G04 Rotation:  0*
G04 FullContactRelief:  No*
G04 UndefLineWidth:     0.0000*
G04 ================== end FILE IDENTIFICATION RECORD ====================*
%FSLAX25Y25*MOMM*%
%IR0*IPPOS*OFA0.00000B0.00000*MIA0B0*SFA1.00000B1.00000*%
%ADD15O,1.8999X1.1999*%
%ADD14C,.61*%
%ADD11C,1.3211*%
%ADD10R,1.3211X1.3211*%
%ADD12C,1.5751*%
%ADD13R,1.5751X1.5751*%
%ADD16C,.254*%
%ADD17C,.381*%
%ADD23C,2.0836*%
%ADD18O,2.4084X1.7084*%
%ADD20C,1.5756*%
%ADD24R,2.0836X2.0836*%
%ADD22C,1.8296*%
%ADD21R,1.5756X1.5756*%
%ADD19R,1.8296X1.8296*%
G75*
%LPD*%
G75*
G36*
G01X300010Y300010D02*
Y4199990D01*
X10699990D01*
Y300010D01*
X300010D01*
G37*
%LPC*%
G75*
G36*
G01X8732920Y4011590D02*
Y3401710D01*
G02X8656680I-38120J-40910D01*
G01Y3980010D01*
X8610810Y4025880D01*
X6746790D01*
X6674120Y3953210D01*
Y3903160D01*
G02X6597880I-38120J-83160D01*
G01Y3984790D01*
X6715210Y4102120D01*
X8642390D01*
X8732920Y4011590D01*
G37*
G36*
G01X1046120Y3706790D02*
X1095290Y3657620D01*
X1280440D01*
G03X1287630Y3674960I2J10160D01*
G01X1223880Y3738710D01*
Y3793040D01*
G02X1300120I38120J96960D01*
G01Y3770290D01*
X1349290Y3721120D01*
X5159290D01*
X5435620Y3444790D01*
Y2873290D01*
X5520790Y2788120D01*
X5592840D01*
G02X5704910Y2836790I83158J-38121D01*
G01X5707890Y2835800D01*
X5740380Y2868290D01*
Y3381290D01*
X5846950Y3487860D01*
G03X5839760Y3505200I-7188J7180D01*
G01X5718010D01*
X5664120Y3451310D01*
Y3443220D01*
X5666930Y3441810D01*
G02X5587880Y3443160I-40934J-81810D01*
G01Y3482890D01*
X5686430Y3581440D01*
X8316970D01*
X8588220Y3310190D01*
Y3279410D01*
G02X8522720Y3189740I-38122J-40911D01*
G03X8507590Y3180880I-4971J-8860D01*
G01Y2918390D01*
G03X8512360Y2913320I5079J0D01*
G02X8457030Y2836850I-3361J-55820D01*
G03X8438740Y2838080I-9439J-3754D01*
G02X8351880Y2906410I-48737J27419D01*
G01Y3214710D01*
X8239210Y3327380D01*
X7000790D01*
X6959620Y3286210D01*
Y2524210D01*
X6873790Y2438380D01*
X5806830D01*
X5758150Y2389700D01*
G03X5759410Y2374270I7188J-7179D01*
G02X5630940Y2247700I-53414J-74268D01*
G01X5630680Y2248070D01*
X5626770Y2251980D01*
X5622670Y2247880D01*
X5381710D01*
X5232380Y2397210D01*
Y3349710D01*
X5000710Y3581380D01*
X1063710D01*
X969880Y3675210D01*
Y3793040D01*
G02X1046120I38120J96960D01*
G01Y3706790D01*
G37*
G36*
G01X3299990Y2103080D02*
X3149620Y1952710D01*
Y587290D01*
X3317790Y419120D01*
X3883940D01*
G03X3891130Y436460I2J10160D01*
G01X3835380Y492210D01*
Y1825710D01*
X3794210Y1866880D01*
X3540210D01*
X3487080Y1920010D01*
Y2372090D01*
G02X3563320I38120J40910D01*
G01Y1951590D01*
X3571790Y1943120D01*
X3825790D01*
X3869740Y1899170D01*
G03X3887080Y1906360I7180J7188D01*
G01Y2423790D01*
G02X3963320I38120J40910D01*
G01Y1869090D01*
X4016290Y1816120D01*
X4959590D01*
X4975090Y1831620D01*
X4992840D01*
G02X5004370Y1850400I83157J-38125D01*
G03X4996410Y1866880I-7955J6320D01*
G01X4619710D01*
X4581390Y1905200D01*
G03X4564110Y1899090I-7179J-7188D01*
G02X4452580Y1904910I-55609J5900D01*
G01Y1907010D01*
X4343380Y2016210D01*
Y2778210D01*
X4282640Y2838950D01*
X4138810D01*
G02Y2915190I-40910J38120D01*
G01X4314220D01*
X4419620Y2809790D01*
Y2047790D01*
X4506490Y1960920D01*
X4508590D01*
G02X4513200Y1960720I-117J-55919D01*
G01X4515550Y1960520D01*
X4520810Y1965780D01*
X4470380Y2016210D01*
Y2905210D01*
X4447010Y2928580D01*
X4444910D01*
G02X4500920Y2984590I90J55920D01*
G01Y2982490D01*
X4546620Y2936790D01*
Y2047790D01*
X4651290Y1943120D01*
X5222790D01*
X5308620Y1857290D01*
Y841290D01*
X5381790Y768120D01*
X5646840D01*
G02Y691880I83160J-38120D01*
G01X5350210D01*
X5232380Y809710D01*
Y1825710D01*
X5191210Y1866880D01*
X5155590D01*
G03X5147630Y1850400I-5J-10160D01*
G02X5000940Y1741200I-71632J-56901D01*
G01X5000680Y1741570D01*
X4996770Y1745480D01*
X4991170Y1739880D01*
X3984710D01*
X3928960Y1795630D01*
G03X3911620Y1788440I-7180J-7188D01*
G01Y523790D01*
X3965490Y469920D01*
X7964160D01*
X8153380Y659140D01*
Y1419590D01*
G02X8185590Y1516110I38121J40913D01*
G03X8191700Y1533390I-1078J10101D01*
G01X8031880Y1693210D01*
Y1737090D01*
G02X8109600Y1738520I38120J40911D01*
G01X8108120Y1737030D01*
Y1724790D01*
X8425620Y1407290D01*
Y497710D01*
X8270770Y342860D01*
X7943130D01*
X7943110Y342880D01*
X3286210D01*
X3073380Y555710D01*
Y1984290D01*
X3246080Y2156990D01*
Y2159090D01*
G02X3302090Y2103080I55920J-90D01*
G01X3299990D01*
G37*
G36*
G01X814180Y3333420D02*
Y3145820D01*
X605820D01*
Y3354180D01*
X807500D01*
Y3468920D01*
X1625420D01*
Y3333420D01*
X814180D01*
G37*
G54D23*
X710000Y2488000D03*
Y2742000D03*
Y2996000D03*
X1516000Y3890000D03*
X7302500Y2286000D03*
Y2540000D03*
Y2794000D03*
G54D18*
X10530000Y1422500D03*
Y397500D03*
X10160000Y1422500D03*
Y397500D03*
G54D20*
X762000Y698500D03*
X1974000Y750000D03*
X2814000Y740000D03*
X5066000Y3111500D03*
G54D24*
X1770000Y3890000D03*
X7302500Y3048000D03*
G54D22*
X1016000Y1460500D03*
X710000Y2234000D03*
X754000Y3890000D03*
X1928000Y1520000D03*
X1834000Y2560000D03*
X1794000Y2110000D03*
X1754000Y3410000D03*
Y2950000D03*
X2690000Y1520000D03*
X2810000Y2110000D03*
X2770000Y2950000D03*
Y3410000D03*
X2850000Y2560000D03*
X3492500Y3873500D03*
X3603500Y1323500D03*
X4165500Y1333500D03*
X4508500Y3873500D03*
X5720000Y1180000D03*
X5706000Y1740000D03*
X5620000Y3820000D03*
X6736000Y1180000D03*
X6746000Y730000D03*
X7302500Y2032000D03*
X6722000Y1740000D03*
Y2300000D03*
X7747000Y1206500D03*
Y698500D03*
X8064500Y3746500D03*
X8763000Y1206500D03*
Y698500D03*
X9300000Y2218000D03*
Y2980000D03*
X9271000Y3746500D03*
X10160000Y2244000D03*
X10170000Y2896000D03*
X10287000Y3746500D03*
G54D21*
X762000Y1460500D03*
X3349500Y1323500D03*
X4419500Y1333500D03*
X5076000Y2047500D03*
X10160000Y1990000D03*
X10170000Y3150000D03*
G54D19*
X1016000Y698500D03*
X1720000Y750000D03*
X2560000Y740000D03*
X5066000Y2857500D03*
X8382000Y3746500D03*
%LPD*%
G75*
G54D10*
X1016000Y698500D03*
X762000Y1460500D03*
X1720000Y750000D03*
X2560000Y740000D03*
X3349500Y1323500D03*
X4419500Y1333500D03*
X5076000Y2047500D03*
X5066000Y2857500D03*
X8382000Y3746500D03*
X10160000Y1990000D03*
X10170000Y3150000D03*
G54D11*
X762000Y698500D03*
X1016000Y1460500D03*
X1974000Y750000D03*
X1928000Y1520000D03*
X1834000Y2560000D03*
X1794000Y2110000D03*
X1754000Y3410000D03*
Y2950000D03*
X2814000Y740000D03*
X2690000Y1520000D03*
X2810000Y2110000D03*
X2770000Y2950000D03*
Y3410000D03*
X2850000Y2560000D03*
X3492500Y3873500D03*
X3603500Y1323500D03*
X4165500Y1333500D03*
X5076000Y1793500D03*
X5066000Y3111500D03*
X4508500Y3873500D03*
X5720000Y1180000D03*
X5730000Y730000D03*
X5706000Y1740000D03*
X5676000Y2750000D03*
X5706000Y2300000D03*
X5626000Y3360000D03*
X5620000Y3820000D03*
X6636000D03*
X6736000Y1180000D03*
X6746000Y730000D03*
X6722000Y1740000D03*
X6692000Y2750000D03*
X6722000Y2300000D03*
X6642000Y3360000D03*
X7747000Y1206500D03*
Y698500D03*
X8064500Y3746500D03*
X8763000Y1206500D03*
Y698500D03*
X9300000Y2218000D03*
Y2980000D03*
X9271000Y3746500D03*
X10160000Y2244000D03*
X10170000Y2896000D03*
X10287000Y3746500D03*
G54D12*
X710000Y2234000D03*
Y2488000D03*
Y2742000D03*
Y2996000D03*
X754000Y3890000D03*
X1008000D03*
X1262000D03*
X1516000D03*
X7302500Y2032000D03*
Y2286000D03*
Y2540000D03*
Y2794000D03*
G54D13*
X710000Y3250000D03*
X1770000Y3890000D03*
X7302500Y3048000D03*
G54D14*
X3302000Y2159000D03*
X3525200Y2413000D03*
X3925200Y2464700D03*
X4097900Y2877070D03*
X4191000Y3238500D03*
X4508500Y1905000D03*
X4445000Y2984500D03*
X8070000Y1778000D03*
X8191500Y1460500D03*
X8550100Y2349500D03*
X8694800Y3360800D03*
X8509000Y2857500D03*
X8390000Y2865500D03*
X8550100Y3238500D03*
G54D15*
X10160000Y397500D03*
Y1422500D03*
X10530000Y397500D03*
Y1422500D03*
G54D16*
G01X5706000Y2300000D02*
X5620880D01*
X5606880Y2286000D01*
X5397500D01*
X5270500Y2413000D01*
Y3365500D01*
X5016500Y3619500D01*
X1079500D01*
X1008000Y3691000D01*
Y3890000D01*
G01X5676000Y2750000D02*
X5505000D01*
X5397500Y2857500D01*
Y3429000D01*
X5143500Y3683000D01*
X1333500D01*
X1262000Y3754500D01*
Y3890000D01*
G01X3302000Y2159000D02*
X3111500Y1968500D01*
Y571500D01*
X3302000Y381000D01*
X7958900D01*
X7958920Y380980D01*
X8254980D01*
X8387500Y513500D01*
Y1391500D01*
X8070000Y1709000D01*
Y1778000D01*
G01X8191500Y1460500D02*
Y643350D01*
X7979950Y431800D01*
X3949700D01*
X3873500Y508000D01*
Y1841500D01*
X3810000Y1905000D01*
X3556000D01*
X3525200Y1935800D01*
Y2413000D01*
G01X3925200Y2464700D02*
Y1853300D01*
X4000500Y1778000D01*
X4975380D01*
X4990880Y1793500D01*
X5076000D01*
G01X4097900Y2877070D02*
X4298430D01*
X4381500Y2794000D01*
Y2032000D01*
X4508500Y1905000D01*
G01X5730000Y730000D02*
X5366000D01*
X5270500Y825500D01*
Y1841500D01*
X5207000Y1905000D01*
X4635500D01*
X4508500Y2032000D01*
Y2921000D01*
X4445000Y2984500D01*
G01X5706000Y2300000D02*
Y2391460D01*
X5791040Y2476500D01*
X6858000D01*
X6921500Y2540000D01*
Y3302000D01*
X6985000Y3365500D01*
X8255000D01*
X8390000Y3230500D01*
Y2865500D01*
G01X8509000Y2857500D02*
X8469470Y2897030D01*
Y3278030D01*
X8255000Y3492500D01*
X5905500D01*
X5778500Y3365500D01*
Y2852500D01*
X5676000Y2750000D01*
G01X8550100Y3238500D02*
Y3294400D01*
X8301180Y3543320D01*
X5702220D01*
X5626000Y3467100D01*
Y3360000D01*
G01X6636000Y3820000D02*
Y3969000D01*
X6731000Y4064000D01*
X8626600D01*
X8694800Y3995800D01*
Y3360800D01*
G54D17*
G01X762000Y698500D02*
X845860D01*
G01X678140D02*
X762000D01*
G01D02*
Y782360D01*
G01Y614640D02*
Y698500D01*
G01Y1460500D02*
X845860D01*
G01X678140D02*
X762000D01*
G01D02*
Y1544360D01*
G01Y1376640D02*
Y1460500D01*
G01X710000Y2234000D02*
X806560D01*
G01X613440D02*
X710000D01*
G01D02*
Y2330560D01*
G01Y2137440D02*
Y2234000D01*
G01X754000Y3890000D02*
X850560D01*
G01X657440D02*
X754000D01*
G01D02*
Y3986560D01*
G01Y3793440D02*
Y3890000D01*
G01X1974000Y750000D02*
X2057860D01*
G01X1890140D02*
X1974000D01*
G01D02*
Y833860D01*
G01Y666140D02*
Y750000D01*
G01X2730140Y740000D02*
X2814000D01*
G01D02*
X2897860D01*
G01X2814000D02*
Y823860D01*
G01Y656140D02*
Y740000D01*
G01X3349500Y1323500D02*
X3433360D01*
G01X3265640D02*
X3349500D01*
G01D02*
Y1407360D01*
G01Y1239640D02*
Y1323500D01*
G01X4191000Y3238500D02*
X4318000Y3111500D01*
G01X4419500Y1333500D02*
X4503360D01*
G01X4335640D02*
X4419500D01*
G01D02*
Y1417360D01*
G01Y1249640D02*
Y1333500D01*
G01X4992140Y2047500D02*
X5076000D01*
G01D02*
X4955490Y2168010D01*
G01D02*
Y3000990D01*
G01X5066000Y3111500D02*
X5149860D01*
G01X5066000D02*
Y3195360D01*
G01Y3027640D02*
Y3111500D01*
G01X4955490Y3000990D02*
X5066000Y3111500D01*
G01X4318000D02*
X5066000D01*
G01X5076000Y1963640D02*
Y2047500D01*
G01D02*
Y2131360D01*
G01Y2047500D02*
X5173820D01*
G01D02*
X5189320Y2032000D01*
G01D02*
X7302500D01*
G01D02*
Y1905000D01*
G01Y2032000D02*
X7399060D01*
G01X7302500D02*
Y2128560D01*
G01Y2032000D02*
X7620000Y2349500D01*
G01D02*
X8550100D01*
G01X8128000Y2857500D02*
Y2771600D01*
X8550100Y2349500D01*
G01X10160000Y1906140D02*
Y1990000D01*
G01D02*
X10243860D01*
G01X10160000D02*
Y2073860D01*
G01Y1990000D02*
X10074990D01*
G01X10170000Y3150000D02*
X10253860D01*
G01X10086140D02*
X10170000D01*
G01D02*
Y3233860D01*
G01Y3066140D02*
Y3150000D01*
M02*
