G04 ================== begin FILE IDENTIFICATION RECORD ==================*
G04 Layout Name:  C:/Users/user/Desktop/AVRUSB500.brd*
G04 Film Name:    MetalT*
G04 File Format:  Gerber RS274X*
G04 File Origin:  Cadence Allegro 16.6-S034*
G04 Origin Date:  Fri Jul 19 12:19:50 2019*
G04 *
G04 Layer:  PIN/PASTEMASK_TOP*
G04 Layer:  PACKAGE GEOMETRY/PASTEMASK_TOP*
G04 *
G04 Offset:    (0.0000 0.0000)*
G04 Mirror:    No*
G04 Mode:      Positive*
G04 Rotation:  0*
G04 FullContactRelief:  No*
G04 UndefLineWidth:     0.0000*
G04 ================== end FILE IDENTIFICATION RECORD ====================*
%FSLAX25Y25*MOMM*%
%IR0*IPPOS*OFA0.00000B0.00000*MIA0B0*SFA1.00000B1.00000*%
%ADD15R,1.8999X.4*%
%ADD12O,.4569X1.778*%
%ADD11O,1.778X.4569*%
%ADD13R,.4569X1.778*%
%ADD10R,1.778X.4569*%
%ADD14R,1.8999X1.1001*%
%LPD*%
G75*
G54D10*
X3380400Y2720000D03*
X4230000Y2400000D03*
X7845200Y2474800D03*
X8694800Y2394800D03*
G54D11*
X3380400Y2640000D03*
Y2560000D03*
Y2480000D03*
Y2400000D03*
Y2960100D03*
Y2880100D03*
Y2800000D03*
X4230000Y2480000D03*
Y2560000D03*
Y2640000D03*
Y2720000D03*
Y2800000D03*
Y2880100D03*
Y2960100D03*
X7845200Y2714800D03*
Y2634800D03*
Y2554800D03*
Y2394800D03*
Y2314800D03*
Y2874800D03*
Y2794800D03*
X8694800Y2314800D03*
Y2474800D03*
Y2554800D03*
Y2634800D03*
Y2714800D03*
Y2794800D03*
Y2874800D03*
G54D12*
X3525200Y2255200D03*
Y3104800D03*
X3605200Y2255200D03*
X3685200D03*
X3765200D03*
X3845200D03*
X4005200D03*
X4085200D03*
Y3104800D03*
X3925200D03*
X3845200D03*
X3765200D03*
X3685200D03*
X3605200D03*
X8070000Y2170000D03*
Y3019600D03*
X7990000D03*
X8150000Y2170000D03*
X8230000D03*
X8310000D03*
X8390000D03*
X8470100D03*
X8550100D03*
Y3019600D03*
X8470100D03*
X8390000D03*
X8230000D03*
X8150000D03*
G54D13*
X3925200Y2255200D03*
X4005200Y3104800D03*
X7990000Y2170000D03*
X8310000Y3019600D03*
G54D14*
X10160000Y1140000D03*
Y680000D03*
G54D15*
Y1040000D03*
Y975000D03*
Y910000D03*
Y845000D03*
Y780000D03*
M02*
