G04 ================== begin FILE IDENTIFICATION RECORD ==================*
G04 Layout Name:  C:/Users/user/Desktop/AVRUSB500.brd*
G04 Film Name:    skikb*
G04 File Format:  Gerber RS274X*
G04 File Origin:  Cadence Allegro 16.6-S034*
G04 Origin Date:  Fri Jul 19 12:19:50 2019*
G04 *
G04 Layer:  REF DES/SILKSCREEN_BOTTOM*
G04 Layer:  PACKAGE GEOMETRY/SILKSCREEN_TOP*
G04 Layer:  PACKAGE GEOMETRY/SILKSCREEN_BOTTOM*
G04 Layer:  BOARD GEOMETRY/SILKSCREEN_TOP*
G04 Layer:  BOARD GEOMETRY/SILKSCREEN_BOTTOM*
G04 *
G04 Offset:    (0.0000 0.0000)*
G04 Mirror:    No*
G04 Mode:      Positive*
G04 Rotation:  0*
G04 FullContactRelief:  No*
G04 UndefLineWidth:     0.2000*
G04 ================== end FILE IDENTIFICATION RECORD ====================*
%FSLAX25Y25*MOMM*%
%IR0*IPPOS*OFA0.00000B0.00000*MIA0B0*SFA1.00000B1.00000*%
%ADD10C,.2*%
%ADD11C,.203*%
%ADD12C,.254*%
G75*
%LPD*%
G75*
G54D10*
G01X4538550Y-190000D02*
Y-70000D01*
X4565210D01*
X4575880Y-76000D01*
X4583880Y-84000D01*
X4590550Y-96000D01*
X4595880Y-110000D01*
X4597210Y-130000D01*
X4595880Y-150000D01*
X4590550Y-164000D01*
X4583880Y-176000D01*
X4575880Y-184000D01*
X4565210Y-190000D01*
X4538550D01*
G01X4663120D02*
X4652450Y-188000D01*
X4643120Y-180000D01*
X4635120Y-168000D01*
X4629790Y-154000D01*
X4627120Y-138000D01*
Y-122000D01*
X4629790Y-106000D01*
X4635120Y-92000D01*
X4643120Y-80000D01*
X4652450Y-72000D01*
X4663120Y-70000D01*
X4673790Y-72000D01*
X4683120Y-80000D01*
X4691120Y-92000D01*
X4696450Y-106000D01*
X4699120Y-122000D01*
Y-138000D01*
X4696450Y-154000D01*
X4691120Y-168000D01*
X4683120Y-180000D01*
X4673790Y-188000D01*
X4663120Y-190000D01*
G01X4727690D02*
Y-70000D01*
X4789030Y-190000D01*
Y-70000D01*
G01X4861600Y-130000D02*
X4888270D01*
Y-166000D01*
X4880270Y-178000D01*
X4870930Y-186000D01*
X4857600Y-190000D01*
X4844270Y-186000D01*
X4834930Y-178000D01*
X4826930Y-166000D01*
X4821600Y-152000D01*
X4818930Y-136000D01*
Y-122000D01*
X4821600Y-110000D01*
X4826930Y-96000D01*
X4834930Y-84000D01*
X4842930Y-76000D01*
X4853600Y-70000D01*
X4862930D01*
X4873600Y-74000D01*
X4881600Y-82000D01*
G54D11*
G01X1174700Y698500D02*
G02I-285700J0D01*
G01Y1460500D02*
G02I-285700J0D01*
G01X837000Y2094300D02*
X583000D01*
G01X837000Y3389700D02*
Y2094300D01*
G01X583000Y2488000D02*
Y2742000D01*
G01Y2234000D02*
Y2488000D01*
G01Y2094300D02*
Y2234000D01*
G01Y3389700D02*
X837000D01*
G01X583000Y3250000D02*
Y3389700D01*
G01Y2996000D02*
Y3250000D01*
G01Y2742000D02*
Y2996000D01*
G01X614300Y3763000D02*
Y4017000D01*
G01X1909700Y3763000D02*
X614300D01*
G01X1008000Y4017000D02*
X1262000D01*
G01X754000D02*
X1008000D01*
G01X614300D02*
X754000D01*
G01X2132700Y750000D02*
G02I-285700J0D01*
G01X1737500Y1774000D02*
X2880500D01*
G01Y1266000D02*
X1737500D01*
G01D02*
Y1774000D01*
G01X2024500Y2560000D02*
X1961000D01*
G01X1984500Y2110000D02*
X1921000D01*
G01X2619500Y1983000D02*
X1984500D01*
G01D02*
Y2110000D01*
G01D02*
Y2237000D01*
G01D02*
X2619500D01*
G01X1944500Y2950000D02*
X1881000D01*
G01X2579500Y2823000D02*
X1944500D01*
G01D02*
Y2950000D01*
G01D02*
Y3077000D01*
G01D02*
X2579500D01*
G01X1944500Y3410000D02*
X1881000D01*
G01X2579500Y3283000D02*
X1944500D01*
G01D02*
Y3410000D01*
G01D02*
Y3537000D01*
G01X1909700Y4017000D02*
Y3763000D01*
G01X1770000Y4017000D02*
X1909700D01*
G01X1516000D02*
X1770000D01*
G01X1262000D02*
X1516000D01*
G01X1944500Y3537000D02*
X2579500D01*
G01X2972700Y740000D02*
G02I-285700J0D01*
G01X2659500Y2560000D02*
X2723000D01*
G01X2659500Y2687000D02*
Y2560000D01*
G01D02*
Y2433000D01*
G01D02*
X2024500D01*
G01D02*
Y2560000D01*
G01D02*
Y2687000D01*
G01D02*
X2659500D01*
G01X2619500Y2110000D02*
X2683000D01*
G01X2619500Y2237000D02*
Y2110000D01*
G01D02*
Y1983000D01*
G01X2579500Y2950000D02*
X2643000D01*
G01X2579500Y3077000D02*
Y2950000D01*
G01D02*
Y2823000D01*
G01Y3410000D02*
X2643000D01*
G01X2579500Y3537000D02*
Y3410000D01*
G01D02*
Y3283000D01*
G01X3762200Y1323500D02*
G02I-285700J0D01*
G01X2880500Y1774000D02*
Y1266000D01*
G01X4578200Y1333500D02*
G02I-285700J0D01*
G01X3683000Y3873500D02*
X3619500D01*
G01X3683000Y3746500D02*
Y3873500D01*
G01D02*
Y4000500D01*
G01D02*
X4318000D01*
G01Y3746500D02*
X3683000D01*
G01X5361700Y1920500D02*
G02I-285700J0D01*
G01X5351700Y2984500D02*
G02I-285700J0D01*
G01X4318000Y3873500D02*
X4381500D01*
G01X4318000Y4000500D02*
Y3873500D01*
G01D02*
Y3746500D01*
G01X5816500Y3360000D02*
X5753000D01*
G01X5816500Y3233000D02*
Y3360000D01*
G01D02*
Y3487000D01*
G01D02*
X6451500D01*
G01Y3233000D02*
X5816500D01*
G01X5866500Y2750000D02*
X5803000D01*
G01X5810500Y3820000D02*
X5747000D01*
G01X6445500Y3693000D02*
X5810500D01*
G01D02*
Y3820000D01*
G01D02*
Y3947000D01*
G01D02*
X6445500D01*
G01X6545500Y1180000D02*
X6609000D01*
G01X5910500D02*
X5847000D01*
G01X6545500Y1307000D02*
Y1180000D01*
G01D02*
Y1053000D01*
G01D02*
X5910500D01*
G01D02*
Y1180000D01*
G01D02*
Y1307000D01*
G01X6555500Y730000D02*
X6619000D01*
G01X5920500D02*
X5857000D01*
G01X6555500Y857000D02*
Y730000D01*
G01D02*
Y603000D01*
G01D02*
X5920500D01*
G01D02*
Y730000D01*
G01D02*
Y857000D01*
G01D02*
X6555500D01*
G01X5896500Y1740000D02*
X5833000D01*
G01X6531500D02*
X6595000D01*
G01X5896500Y1613000D02*
Y1740000D01*
G01D02*
Y1867000D01*
G01D02*
X6531500D01*
G01D02*
Y1740000D01*
G01D02*
Y1613000D01*
G01D02*
X5896500D01*
G01X5910500Y1307000D02*
X6545500D01*
G01X5866500Y2623000D02*
Y2750000D01*
G01X6501500D02*
Y2623000D01*
G01D02*
X5866500D01*
G01X5896500Y2300000D02*
X5833000D01*
G01X6531500D02*
X6595000D01*
G01X5896500Y2173000D02*
Y2300000D01*
G01D02*
Y2427000D01*
G01D02*
X6531500D01*
G01D02*
Y2300000D01*
G01D02*
Y2173000D01*
G01D02*
X5896500D01*
G01X6451500Y3360000D02*
X6515000D01*
G01X6451500Y3487000D02*
Y3360000D01*
G01D02*
Y3233000D01*
G01X6501500Y2750000D02*
X6565000D01*
G01X5866500D02*
Y2877000D01*
G01D02*
X6501500D01*
G01D02*
Y2750000D01*
G01X6445500Y3820000D02*
X6509000D01*
G01X6445500Y3947000D02*
Y3820000D01*
G01D02*
Y3693000D01*
G01X7429500Y1892300D02*
X7175500D01*
G01D02*
Y2032000D01*
G01Y2540000D02*
Y2794000D01*
G01Y2286000D02*
Y2540000D01*
G01Y2032000D02*
Y2286000D01*
G01Y3187700D02*
X7429500D01*
G01X7175500Y3048000D02*
Y3187700D01*
G01Y2794000D02*
Y3048000D01*
G01X8572500Y1079500D02*
X7937500D01*
G01D02*
Y1206500D01*
G01Y698500D02*
X7874000D01*
G01X8572500Y571500D02*
X7937500D01*
G01D02*
Y698500D01*
G01D02*
Y825500D01*
G01D02*
X8572500D01*
G01X7429500Y3187700D02*
Y1892300D01*
G01X7937500Y1206500D02*
X7874000D01*
G01X7937500D02*
Y1333500D01*
G01D02*
X8572500D01*
G01X8540700Y3746500D02*
G02X8223300Y3429000I-317400J-100D01*
G02Y4064000I0J317500D01*
G02X8540700Y3746500I0J-317400D01*
G01X8572500Y1206500D02*
Y1079500D01*
G01Y698500D02*
X8636000D01*
G01X8572500Y825500D02*
Y698500D01*
G01D02*
Y571500D01*
G01Y1206500D02*
X8636000D01*
G01X8572500Y1333500D02*
Y1206500D01*
G01X9046000Y2027500D02*
Y3170500D01*
G01X9554000D02*
Y2027500D01*
G01D02*
X9046000D01*
G01Y3170500D02*
X9554000D01*
G01X9461500Y3746500D02*
X9398000D01*
G01X9461500Y3619500D02*
Y3746500D01*
G01D02*
Y3873500D01*
G01D02*
X10096500D01*
G01Y3619500D02*
X9461500D01*
G01X10445700Y2117000D02*
G02I-285700J0D01*
G01X10455700Y3023000D02*
G02I-285700J0D01*
G01X10096500Y3746500D02*
X10160000D01*
G01X10096500Y3873500D02*
Y3746500D01*
G01D02*
Y3619500D01*
G54D12*
G01X4297300Y2330700D02*
X4154600D01*
G01X7920700Y2102700D02*
Y2245400D01*
M02*
