G04 ================== begin FILE IDENTIFICATION RECORD ==================*
G04 Layout Name:  C:/Users/user/Desktop/AVRUSB500.brd*
G04 Film Name:    SolderT*
G04 File Format:  Gerber RS274X*
G04 File Origin:  Cadence Allegro 16.6-S034*
G04 Origin Date:  Fri Jul 19 12:19:50 2019*
G04 *
G04 Layer:  VIA CLASS/SOLDERMASK_TOP*
G04 Layer:  PIN/SOLDERMASK_TOP*
G04 Layer:  PACKAGE GEOMETRY/SOLDERMASK_TOP*
G04 Layer:  BOARD GEOMETRY/SOLDERMASK_TOP*
G04 *
G04 Offset:    (0.0000 0.0000)*
G04 Mirror:    No*
G04 Mode:      Positive*
G04 Rotation:  0*
G04 FullContactRelief:  No*
G04 UndefLineWidth:     0.0000*
G04 ================== end FILE IDENTIFICATION RECORD ====================*
%FSLAX25Y25*MOMM*%
%IR0*IPPOS*OFA0.00000B0.00000*MIA0B0*SFA1.00000B1.00000*%
%ADD19O,1.8999X1.1999*%
%ADD21R,1.8999X.4*%
%ADD17O,.4569X1.778*%
%ADD16O,1.778X.4569*%
%ADD18R,.4569X1.778*%
%ADD15R,1.778X.4569*%
%ADD11C,1.3211*%
%ADD14C,1.118*%
%ADD10R,1.3211X1.3211*%
%ADD12C,1.5751*%
%ADD20R,1.8999X1.1001*%
%ADD13R,1.5751X1.5751*%
%LPD*%
G75*
G54D10*
X1016000Y698500D03*
X762000Y1460500D03*
X1720000Y750000D03*
X2560000Y740000D03*
X3349500Y1323500D03*
X4419500Y1333500D03*
X5076000Y2047500D03*
X5066000Y2857500D03*
X8382000Y3746500D03*
X10160000Y1990000D03*
X10170000Y3150000D03*
G54D20*
X10160000Y1140000D03*
Y680000D03*
G54D11*
X762000Y698500D03*
X1016000Y1460500D03*
X1974000Y750000D03*
X1928000Y1520000D03*
X1834000Y2560000D03*
X1794000Y2110000D03*
X1754000Y3410000D03*
Y2950000D03*
X2814000Y740000D03*
X2690000Y1520000D03*
X2810000Y2110000D03*
X2770000Y2950000D03*
Y3410000D03*
X2850000Y2560000D03*
X3492500Y3873500D03*
X3603500Y1323500D03*
X4165500Y1333500D03*
X5076000Y1793500D03*
X5066000Y3111500D03*
X4508500Y3873500D03*
X5720000Y1180000D03*
X5730000Y730000D03*
X5706000Y1740000D03*
X5676000Y2750000D03*
X5706000Y2300000D03*
X5626000Y3360000D03*
X5620000Y3820000D03*
X6636000D03*
X6736000Y1180000D03*
X6746000Y730000D03*
X6722000Y1740000D03*
X6692000Y2750000D03*
X6722000Y2300000D03*
X6642000Y3360000D03*
X7747000Y1206500D03*
Y698500D03*
X8064500Y3746500D03*
X8763000Y1206500D03*
Y698500D03*
X9300000Y2218000D03*
Y2980000D03*
X9271000Y3746500D03*
X10160000Y2244000D03*
X10170000Y2896000D03*
X10287000Y3746500D03*
G54D12*
X710000Y2234000D03*
Y2488000D03*
Y2742000D03*
Y2996000D03*
X754000Y3890000D03*
X1008000D03*
X1262000D03*
X1516000D03*
X7302500Y2032000D03*
Y2286000D03*
Y2540000D03*
Y2794000D03*
G54D21*
X10160000Y1040000D03*
Y975000D03*
Y910000D03*
Y845000D03*
Y780000D03*
G54D13*
X710000Y3250000D03*
X1770000Y3890000D03*
X7302500Y3048000D03*
G54D14*
X3302000Y2159000D03*
X3525200Y2413000D03*
X3925200Y2464700D03*
X4097900Y2877070D03*
X4191000Y3238500D03*
X4508500Y1905000D03*
X4445000Y2984500D03*
X8070000Y1778000D03*
X8191500Y1460500D03*
X8550100Y2349500D03*
X8694800Y3360800D03*
X8509000Y2857500D03*
X8390000Y2865500D03*
X8550100Y3238500D03*
G54D15*
X3380400Y2720000D03*
X4230000Y2400000D03*
X7845200Y2474800D03*
X8694800Y2394800D03*
G54D16*
X3380400Y2640000D03*
Y2560000D03*
Y2480000D03*
Y2400000D03*
Y2960100D03*
Y2880100D03*
Y2800000D03*
X4230000Y2480000D03*
Y2560000D03*
Y2640000D03*
Y2720000D03*
Y2800000D03*
Y2880100D03*
Y2960100D03*
X7845200Y2714800D03*
Y2634800D03*
Y2554800D03*
Y2394800D03*
Y2314800D03*
Y2874800D03*
Y2794800D03*
X8694800Y2314800D03*
Y2474800D03*
Y2554800D03*
Y2634800D03*
Y2714800D03*
Y2794800D03*
Y2874800D03*
G54D17*
X3525200Y2255200D03*
Y3104800D03*
X3605200Y2255200D03*
X3685200D03*
X3765200D03*
X3845200D03*
X4005200D03*
X4085200D03*
Y3104800D03*
X3925200D03*
X3845200D03*
X3765200D03*
X3685200D03*
X3605200D03*
X8070000Y2170000D03*
Y3019600D03*
X7990000D03*
X8150000Y2170000D03*
X8230000D03*
X8310000D03*
X8390000D03*
X8470100D03*
X8550100D03*
Y3019600D03*
X8470100D03*
X8390000D03*
X8230000D03*
X8150000D03*
G54D18*
X3925200Y2255200D03*
X4005200Y3104800D03*
X7990000Y2170000D03*
X8310000Y3019600D03*
G54D19*
X10160000Y397500D03*
Y1422500D03*
X10530000Y397500D03*
Y1422500D03*
M02*
